<?xml version="1.0" encoding="UTF-8" standalone="no"?>
<!-- Created with Inkscape (http://www.inkscape.org/) -->

<svg
   width="210mm"
   height="297mm"
   viewBox="0 0 210 297"
   version="1.1"
   id="svg5"
   inkscape:version="1.2.1 (9c6d41e410, 2022-07-14)"
   sodipodi:docname="Rifmas.svg"
   xmlns:inkscape="http://www.inkscape.org/namespaces/inkscape"
   xmlns:sodipodi="http://sodipodi.sourceforge.net/DTD/sodipodi-0.dtd"
   xmlns="http://www.w3.org/2000/svg"
   xmlns:svg="http://www.w3.org/2000/svg">
  <sodipodi:namedview
     id="namedview7"
     pagecolor="#ffffff"
     bordercolor="#000000"
     borderopacity="0.25"
     inkscape:showpageshadow="2"
     inkscape:pageopacity="0.0"
     inkscape:pagecheckerboard="0"
     inkscape:deskcolor="#d1d1d1"
     inkscape:document-units="mm"
     showgrid="false"
     inkscape:zoom="0.25166597"
     inkscape:cx="1400.6662"
     inkscape:cy="739.07491"
     inkscape:window-width="1366"
     inkscape:window-height="745"
     inkscape:window-x="-8"
     inkscape:window-y="-8"
     inkscape:window-maximized="1"
     inkscape:current-layer="layer1" />
  <defs
     id="defs2" />
  <g
     inkscape:label="Слой 1"
     inkscape:groupmode="layer"
     id="layer1">
    <path
       style="fill:#800080;stroke-width:0.264583"
       d="M 18.923894,65.707963 69.387611,28.385841 70.438938,94.093804 26.283185,131.41593 Z"
       id="path167" />
    <path
       style="fill:#ff00ff;stroke-width:0.264583"
       d="m 68.336283,28.911505 98.299117,1.051327 -1.57699,63.079645 -94.093809,1.576991 z"
       id="path223" />
    <path
       style="fill:#803300;stroke-width:0.264583"
       d="M 72.015929,95.145131 28.911505,131.41593 155.59646,128.78761 166.6354,95.670795 Z"
       id="path225" />
    <path
       style="fill:#000080;stroke-width:0.264583"
       d="m 100.92743,49.412389 c 2.10266,-0.525663 42.57876,0.525664 42.57876,0.525664 l 0.52567,24.706193 -42.57876,0.525664 z"
       id="path281" />
    <rect
       style="fill:#00ffff;stroke-width:0.264583"
       id="rect389"
       width="6.3079643"
       height="5.7823009"
       x="102.24159"
       y="50.463715" />
    <rect
       style="fill:#00ffff;stroke-width:0.264583"
       id="rect443"
       width="8.147788"
       height="6.8336282"
       x="115.64602"
       y="53.092033" />
    <rect
       style="fill:#00ffff;stroke-width:0.264583"
       id="rect445"
       width="12.353098"
       height="4.7309732"
       x="125.10796"
       y="55.45752" />
    <rect
       style="fill:#00ffff;stroke-width:0.264583"
       id="rect447"
       width="6.0451326"
       height="6.0451326"
       x="134.30708"
       y="60.188496" />
    <rect
       style="fill:#00ffff;stroke-width:0.264583"
       id="rect449"
       width="8.147788"
       height="7.0964599"
       x="111.17788"
       y="63.868141" />
    <rect
       style="fill:#00ffff;stroke-width:0.264583"
       id="rect451"
       width="6.3079643"
       height="3.9424777"
       x="103.03009"
       y="66.759293" />
    <rect
       style="fill:#00ffff;stroke-width:0.264583"
       id="rect453"
       width="8.6734514"
       height="4.4681416"
       x="129.5761"
       y="68.599113" />
    <path
       style="fill:#008080;stroke-width:0.264583"
       d="M 37.584956,73.855751 55.194689,59.4 56.508848,84.894689 43.367256,95.670795 Z"
       id="path509" />
    <path
       style="fill:#800000;stroke-width:0.264583"
       d="M 26.019026,205.92201 68.39287,162.06136 64.675866,237.88824 27.505829,272.82806 Z"
       id="path565" />
    <path
       style="fill:#d40000;stroke-width:0.264583"
       d="m 68.39287,164.29157 76.57028,-1.48681 -5.94721,78.05708 -70.62307,-2.9736 z"
       id="path621" />
    <path
       style="fill:#008080;stroke-width:0.264583"
       d="m 85.491086,183.61998 -0.7434,31.96624 42.373844,0.7434 3.717,-31.96623 z"
       id="path677" />
    <path
       style="fill:#aa4400;stroke-width:0.264583"
       d="m 68.39287,240.11844 -33.453035,31.22282 89.208095,4.46043 11.89441,-31.96624 z"
       id="path679" />
    <path
       style="fill:#ffff00;stroke-width:0.264583"
       d="m 34.196435,216.70132 20.81522,-20.44352 0.3717,28.99263 -13.381212,15.61141 z"
       id="path735" />
    <path
       style="fill:#808000;stroke-width:0.264583"
       d="m 37.541737,217.63057 2.601904,6.31891 3.902853,-3.71701 -2.416053,-4.64625 z"
       id="path791" />
    <path
       style="fill:#808000;stroke-width:0.264583"
       d="m 44.232345,216.32962 6.690606,-7.61986 0.557551,5.57551 -5.761357,5.38965 z"
       id="path793" />
    <path
       style="fill:#808000;stroke-width:0.264583"
       d="m 42.002143,225.62213 8.920808,-8.54911 0.929251,5.01795 -9.106659,6.87646 z"
       id="path795" />
    <path
       style="fill:#808000;stroke-width:0.264583"
       d="m 43.860645,229.71083 1.300951,2.9736 7.805709,-7.0623 -1.672654,-2.04436 z"
       id="path797" />
  </g>
</svg>
